<svg width="100%" height="100%" viewBox="0 0 294 100" version="1.1" xmlns="http://www.w3.org/2000/svg" xmlns:xlink="http://www.w3.org/1999/xlink" xml:space="preserve" xmlns:serif="http://www.serif.com/" style="fill-rule:evenodd;clip-rule:evenodd;stroke-linejoin:round;stroke-miterlimit:2;" preserveAspectRatio="none"><g transform="matrix(1,0,0,1,-3.622,-215.776)"><g transform="matrix(1.90066,-0.423782,0,0.523717,-47.329,136.682)"><path d="M26.807,291.989L32.486,291.989L32.486,316.491L38.692,316.491L38.692,291.989L44.397,291.989L44.397,362.008L38.692,362.008L38.692,333.685L32.486,333.685L32.486,362.008L26.807,362.008L26.807,291.989Z" style=";fill-rule:nonzero;" fill="white" data-color-group="0"/><rect x="48.396" y="291.989" width="5.692" height="70.018" style=";fill-rule:nonzero;" fill="white" data-color-group="0"/><path d="M57.172,338.844L62.576,337.554C62.693,340.897 62.931,343.445 63.29,345.196C63.875,348.03 64.711,349.447 65.798,349.447C66.608,349.447 67.233,348.722 67.672,347.273C68.111,345.825 68.33,344.145 68.33,342.235C68.33,340.42 68.121,338.796 67.703,337.363C67.285,335.93 66.316,334.577 64.795,333.303C62.304,331.17 60.528,328.336 59.466,324.802C58.396,321.267 57.862,316.762 57.862,311.285C57.862,307.687 58.135,304.288 58.683,301.088C59.23,297.888 60.053,295.373 61.153,293.542C62.252,291.711 63.758,290.795 65.672,290.795C68.021,290.795 69.812,292.459 71.044,295.786C72.277,299.114 73.011,304.407 73.245,311.667L67.891,312.861C67.749,309.709 67.45,307.416 66.995,305.984C66.539,304.551 65.91,303.834 65.108,303.834C64.448,303.834 63.95,304.368 63.616,305.434C63.282,306.501 63.115,307.799 63.115,309.327C63.115,310.441 63.253,311.444 63.528,312.336C63.796,313.259 64.431,314.119 65.434,314.915C67.916,316.953 69.695,319.015 70.769,321.1C71.843,323.186 72.624,325.773 73.113,328.861C73.602,331.95 73.846,335.405 73.846,339.226C73.846,343.715 73.52,347.855 72.869,351.644C72.217,355.433 71.306,358.306 70.135,360.265C68.965,362.223 67.49,363.202 65.71,363.202C62.584,363.202 60.419,360.909 59.216,356.324C58.012,351.739 57.331,345.912 57.172,338.844Z" style=";fill-rule:nonzero;" fill="white" data-color-group="0"/><path d="M76.241,291.989L92.314,291.989L92.314,305.984L82.008,346.963L92.69,346.963L92.69,362.008L75.251,362.008L75.251,347.488L85.443,306.939L76.241,306.939L76.241,291.989Z" style=";fill-rule:nonzero;" fill="white" data-color-group="0"/><path d="M95.222,291.989L104.663,291.989C106.719,291.989 108.259,293.852 109.283,297.578C110.307,301.303 110.819,306.604 110.819,313.482C110.819,320.551 110.261,326.075 109.145,330.055C108.029,334.036 106.326,336.026 104.036,336.026L100.927,336.026L100.927,362.008L95.222,362.008L95.222,291.989ZM100.927,321.84L102.318,321.84C103.413,321.84 104.182,321.116 104.625,319.667C105.068,318.218 105.29,316.364 105.29,314.103C105.29,311.906 105.097,310.043 104.713,308.515C104.329,306.987 103.606,306.222 102.544,306.222L100.927,306.222L100.927,321.84Z" style=";fill-rule:nonzero;" fill="white" data-color-group="0"/><path d="M122.917,350.45L116.448,350.45L115.558,362.008L109.753,362.008L116.661,291.989L122.854,291.989L129.762,362.008L123.82,362.008L122.917,350.45ZM121.726,335.309L119.695,310.139L117.676,335.309L121.726,335.309Z" style=";fill-rule:nonzero;" fill="white" data-color-group="0"/><path d="M131.618,291.989L136.921,291.989L143.842,330.724L143.842,291.989L149.195,291.989L149.195,362.008L143.842,362.008L136.959,323.56L136.959,362.008L131.618,362.008L131.618,291.989Z" style=";fill-rule:nonzero;" fill="white" data-color-group="0"/><rect x="153.194" y="291.989" width="5.692" height="70.018" style=";fill-rule:nonzero;" fill="white" data-color-group="0"/><path d="M174.269,350.45L167.8,350.45L166.91,362.008L161.105,362.008L168.013,291.989L174.207,291.989L181.115,362.008L175.172,362.008L174.269,350.45ZM173.078,335.309L171.047,310.139L169.029,335.309L173.078,335.309Z" style=";fill-rule:nonzero;" fill="white" data-color-group="0"/></g></g></svg>