<svg width="100%" height="100%" viewBox="0 0 398 192" version="1.1" xmlns="http://www.w3.org/2000/svg" xmlns:xlink="http://www.w3.org/1999/xlink" xml:space="preserve" xmlns:serif="http://www.serif.com/" style="fill-rule:evenodd;clip-rule:evenodd;stroke-linecap:square;stroke-linejoin:round;stroke-miterlimit:1.5;" preserveAspectRatio="none"><g transform="matrix(1,0,0,1,-716.912,-357.774)"><g transform="matrix(0.68325,-0.166106,-0.0127463,0.519191,296.687,358.978)"><path d="M664.568,429.917L684.701,429.917L684.701,464.44L705.811,429.917L732.566,429.917L708.833,464.378L733.632,521.271L708.833,521.271L695.101,483.695L684.701,498.962L684.701,521.271L664.568,521.271L664.568,429.917Z" style=";fill-rule:nonzero;" fill="white" data-color-group="0"/><path d="M779.057,429.917L799.145,429.917L799.145,484.381C799.145,489.781 798.545,494.881 797.345,499.679C796.145,504.477 794.263,508.673 791.7,512.267C789.138,515.86 786.449,518.384 783.634,519.838C779.723,521.873 775.027,522.891 769.546,522.891C766.376,522.891 762.916,522.58 759.168,521.957C755.42,521.333 752.287,520.098 749.769,518.249C747.25,516.4 744.947,513.773 742.858,510.366C740.769,506.959 739.34,503.449 738.569,499.835C737.325,494.019 736.703,488.867 736.703,484.381L736.703,429.917L756.791,429.917L756.791,485.689C756.791,490.674 757.776,494.569 759.746,497.373C761.716,500.178 764.45,501.58 767.946,501.58C771.412,501.58 774.131,500.198 776.101,497.436C778.071,494.673 779.057,490.758 779.057,485.689L779.057,429.917Z" style=";fill-rule:nonzero;" fill="white" data-color-group="0"/><path d="M808.748,429.917L842.213,429.917C849.502,429.917 854.961,432.348 858.59,437.208C862.22,442.069 864.035,448.986 864.035,457.959C864.035,467.182 862.057,474.39 858.102,479.582C854.146,484.775 848.109,487.372 839.991,487.372L828.969,487.372L828.969,521.271L808.748,521.271L808.748,429.917ZM828.969,468.864L833.902,468.864C837.784,468.864 840.51,467.919 842.08,466.029C843.65,464.139 844.435,461.719 844.435,458.769C844.435,455.903 843.754,453.472 842.391,451.478C841.028,449.484 838.465,448.487 834.702,448.487L828.969,448.487L828.969,468.864Z" style=";fill-rule:nonzero;" fill="white" data-color-group="0"/><path d="M897.685,429.917L935.372,429.917C941.654,429.917 946.476,432.098 949.838,436.46C953.201,440.823 954.883,446.223 954.883,452.662C954.883,458.063 953.683,462.695 951.283,466.559C949.683,469.134 947.342,471.17 944.261,472.665C948.942,474.244 952.387,476.955 954.594,480.798C956.801,484.64 957.905,489.47 957.905,495.286C957.905,500.022 957.12,504.28 955.549,508.06C953.979,511.841 951.831,514.832 949.105,517.034C947.416,518.405 944.868,519.402 941.461,520.025C936.928,520.856 933.921,521.271 932.439,521.271L897.685,521.271L897.685,429.917ZM917.995,465.749L926.75,465.749C929.891,465.749 932.076,464.99 933.306,463.474C934.535,461.958 935.15,459.766 935.15,456.9C935.15,454.241 934.535,452.164 933.306,450.668C932.076,449.173 929.936,448.425 926.884,448.425L917.995,448.425L917.995,465.749ZM917.995,501.642L928.262,501.642C931.728,501.642 934.172,500.78 935.595,499.056C937.017,497.332 937.728,495.016 937.728,492.108C937.728,489.407 937.024,487.237 935.617,485.596C934.209,483.955 931.743,483.134 928.217,483.134L917.995,483.134L917.995,501.642Z" style=";fill-rule:nonzero;" fill="white" data-color-group="0"/><rect x="965.597" y="429.917" width="20.177" height="91.354" style=";fill-rule:nonzero;" fill="white" data-color-group="0"/><path d="M996.577,429.917L1016.71,429.917L1016.71,498.775L1048.13,498.775L1048.13,521.271L996.577,521.271L996.577,429.917Z" style=";fill-rule:nonzero;" fill="white" data-color-group="0"/><path d="M1053.6,429.917L1107.55,429.917L1107.55,449.422L1073.78,449.422L1073.78,463.941L1105.11,463.941L1105.11,482.574L1073.78,482.574L1073.78,500.583L1108.53,500.583L1108.53,521.271L1053.6,521.271L1053.6,429.917Z" style=";fill-rule:nonzero;" fill="white" data-color-group="0"/><path d="M1111.16,429.917L1172.36,429.917L1172.36,452.475L1151.82,452.475L1151.82,521.271L1131.69,521.271L1131.69,452.475L1111.16,452.475L1111.16,429.917Z" style=";fill-rule:nonzero;" fill="white" data-color-group="0"/></g><g transform="matrix(1.40581,-0.312087,0,1,372.666,-3.29356)"><path d="M525.974,535.12L525.974,619.914C525.974,625.294 523.013,629.662 519.366,629.662L252.904,629.662C249.257,629.662 246.296,625.294 246.296,619.914L246.296,535.12C246.296,529.74 249.257,525.373 252.904,525.373L519.366,525.373C523.013,525.373 525.974,529.74 525.974,535.12Z" style=";stroke:white;stroke-width:3.61px;" fill="none"/></g></g></svg>