<svg width="100%" height="100%" viewBox="0 0 215 346" version="1.1" xmlns="http://www.w3.org/2000/svg" xmlns:xlink="http://www.w3.org/1999/xlink" xml:space="preserve" xmlns:serif="http://www.serif.com/" style="fill-rule:evenodd;clip-rule:evenodd;stroke-linejoin:round;stroke-miterlimit:2;" preserveAspectRatio="none" fill="#ffffff" data-color-group="0"><g transform="matrix(1,0,0,1,-968.605,-297.384)"><g transform="matrix(1,0,0,1,130.632,-47.4232)"><g transform="matrix(1.01938,0,0,1,-16.2414,0)"><rect x="837.973" y="414.502" width="60.902" height="275.621"/></g><g transform="matrix(1.01938,0,0,1,135.724,0)"><rect x="837.973" y="414.502" width="60.902" height="275.621"/></g><g transform="matrix(1.01938,0,0,1.12454,59.7415,-85.9451)"><rect x="837.973" y="414.502" width="60.902" height="275.621"/></g><g transform="matrix(5.63963e-17,-0.921022,0.776604,4.75533e-17,516.07,1172.69)"><rect x="837.973" y="414.502" width="60.902" height="275.621"/></g><g transform="matrix(5.63963e-17,-0.921022,0.776604,4.75533e-17,516.07,1350.78)"><rect x="837.973" y="414.502" width="60.902" height="275.621"/></g></g></g></svg>