<svg width="225.7" height="64.872" viewBox="0 0 225.7 64.872" xmlns="http://www.w3.org/2000/svg"><g fill="#fff"><path d="M29.622 25.433H27.9l6.21-20.234h5.288l-7.16 22.284h-6.448L18.778 7.755h2.198l-7.012 19.728H7.517L.357 5.199h5.348l6.15 20.234-1.664-.03L17.203 5.2h5.378zM49.291 27.929q-3 0-5.363-1.115-2.362-1.114-3.714-3.134-1.352-2.02-1.352-4.694 0-2.645 1.293-4.635 1.292-1.991 3.55-3.105 2.258-1.114 5.14-1.114 2.942 0 5.051 1.292 2.11 1.292 3.254 3.64 1.144 2.347 1.144 5.526h-15.45v-3.298H55.62l-1.932 1.188q-.118-1.485-.728-2.525-.609-1.04-1.648-1.604-1.04-.565-2.437-.565-1.515 0-2.63.61-1.113.608-1.723 1.693-.609 1.084-.609 2.54 0 1.753.773 3 .772 1.249 2.258 1.902 1.486.654 3.595.654 1.902 0 3.833-.55 1.931-.55 3.476-1.56v3.328q-1.664 1.189-3.877 1.857-2.214.669-4.68.669zM61.205 4.605h4.962v22.878h-4.962zM89.312 20.59q-.297 2.169-1.678 3.833-1.382 1.664-3.55 2.585-2.17.92-4.844.92-3.03 0-5.333-1.114-2.303-1.114-3.595-3.134-1.293-2.02-1.293-4.635 0-2.644 1.293-4.65 1.292-2.005 3.595-3.134 2.303-1.13 5.333-1.13 2.674 0 4.843.936 2.17.936 3.55 2.585 1.382 1.65 1.68 3.848H84.35q-.387-1.723-1.768-2.66-1.382-.935-3.343-.935-1.575 0-2.748.609-1.174.61-1.798 1.753-.624 1.144-.624 2.778 0 1.604.624 2.748.624 1.144 1.798 1.753 1.173.61 2.748.61 1.99 0 3.372-.981 1.382-.98 1.739-2.585zM101.672 27.929q-3.15 0-5.526-1.115-2.377-1.114-3.714-3.12-1.337-2.005-1.337-4.649 0-2.674 1.337-4.68 1.337-2.005 3.714-3.12 2.377-1.113 5.526-1.113 3.15 0 5.527 1.114 2.376 1.114 3.699 3.12 1.322 2.005 1.322 4.679 0 2.644-1.322 4.65-1.323 2.005-3.7 3.12-2.376 1.114-5.526 1.114zm0-3.774q1.724 0 2.957-.624 1.233-.624 1.901-1.767.669-1.144.669-2.719 0-1.604-.669-2.748-.668-1.144-1.901-1.768-1.233-.624-2.957-.624-1.693 0-2.941.624-1.248.624-1.917 1.768-.668 1.144-.668 2.748 0 1.575.668 2.719.669 1.143 1.917 1.767 1.248.624 2.941.624zM114.24 10.577h4.962l1.07 6.448v10.458h-4.962V16.282zm12.063-.445q2.258 0 3.862.965 1.605.966 2.452 2.748.846 1.783.846 4.25v9.388h-4.961v-8.646q0-2.288-.996-3.461-.995-1.174-2.897-1.174-1.337 0-2.317.639-.98.639-1.5 1.768t-.52 2.703l-1.635-.861q.298-2.674 1.367-4.516 1.07-1.842 2.689-2.823 1.62-.98 3.61-.98zm13.162 0q2.258 0 3.877.965 1.62.966 2.466 2.748.847 1.783.847 4.25v9.388h-4.962v-8.646q0-2.288-.995-3.461-.995-1.174-2.897-1.174-1.337 0-2.317.639-.98.639-1.5 1.768t-.52 2.703l-1.635-.861q.297-2.674 1.367-4.516t2.689-2.823q1.62-.98 3.58-.98zM159.699 27.929q-3.001 0-5.363-1.115-2.362-1.114-3.714-3.134-1.352-2.02-1.352-4.694 0-2.645 1.292-4.635 1.293-1.991 3.55-3.105 2.259-1.114 5.14-1.114 2.942 0 5.052 1.292 2.11 1.292 3.253 3.64 1.144 2.347 1.144 5.526h-15.45v-3.298h12.776l-1.931 1.188q-.119-1.485-.728-2.525-.61-1.04-1.65-1.604-1.039-.565-2.435-.565-1.516 0-2.63.61-1.114.608-1.723 1.693-.61 1.084-.61 2.54 0 1.753.773 3 .773 1.249 2.258 1.902 1.486.654 3.595.654 1.902 0 3.833-.55 1.931-.55 3.476-1.56v3.328q-1.663 1.189-3.877 1.857-2.213.669-4.68.669z"/></g><g fill="#fff"><path d="M.149 47.003v-2.198l3.535-1.159 2.11-4.843h2.852v4.457h7.487v3.743H8.646v6.15q0 1.962.817 2.749.817.787 2.838.787 1.277 0 2.258-.237.98-.238 1.871-.684v3.863q-.861.356-2.287.668-1.427.312-2.942.312-2.644 0-4.293-.847-1.65-.846-2.436-2.362-.788-1.515-.788-3.535v-6.864zM28.196 60.611q-3.15 0-5.526-1.114-2.377-1.114-3.714-3.12-1.337-2.005-1.337-4.65 0-2.674 1.337-4.68 1.337-2.005 3.714-3.119 2.377-1.114 5.526-1.114 3.15 0 5.526 1.114 2.377 1.114 3.7 3.12 1.322 2.005 1.322 4.68 0 2.644-1.323 4.65-1.322 2.005-3.699 3.119-2.377 1.114-5.526 1.114zm0-3.773q1.723 0 2.956-.624 1.233-.624 1.902-1.768.668-1.144.668-2.719 0-1.604-.668-2.748-.669-1.144-1.902-1.768-1.233-.624-2.956-.624-1.693 0-2.941.624-1.248.624-1.917 1.768-.668 1.144-.668 2.748 0 1.575.668 2.72.669 1.143 1.917 1.767 1.248.624 2.941.624zM49.648 37.882h5.05v22.283h-5.05zm17.826 0h5.051v22.283h-5.05zm-15.063 8.795h17.292v4.427H52.41zM91.927 60.165l-.713-6.18.802-2.258-.802-2.228.713-6.24h5.14l-.98 8.468.98 8.438zm1.307-8.438q-.475 2.674-1.738 4.68t-3.179 3.105q-1.916 1.1-4.293 1.1-2.466 0-4.368-1.115-1.901-1.114-2.956-3.12-1.055-2.005-1.055-4.65 0-2.674 1.055-4.68 1.055-2.005 2.956-3.119 1.902-1.114 4.368-1.114 2.377 0 4.293 1.1 1.916 1.099 3.194 3.104 1.278 2.006 1.723 4.71zm-12.568 0q0 1.486.61 2.615.608 1.13 1.678 1.768 1.07.639 2.466.639 1.397 0 2.63-.64 1.233-.638 2.183-1.767.951-1.129 1.486-2.615-.535-1.485-1.486-2.629-.95-1.144-2.183-1.783-1.233-.638-2.63-.638-1.396 0-2.466.638-1.07.64-1.679 1.783-.609 1.144-.609 2.63zM99.592 43.26h5.022l1.01 6.09v10.815h-4.962v-11.35zm14.262-.179v4.279q-.773-.178-1.545-.268-.773-.089-1.456-.089-1.486 0-2.674.624t-1.872 1.932q-.683 1.307-.683 3.298l-1.04-1.248q.178-1.813.654-3.402.475-1.59 1.322-2.793.847-1.204 2.094-1.902 1.248-.698 2.972-.698.564 0 1.143.074.58.075 1.085.193zM131.205 60.165l-.713-6.387.951-2.02-.921-2.467 1.337-12.003h5.14l-1.634 14.083.98 8.794zm1.219-8.438q-.476 2.674-1.739 4.68-1.262 2.006-3.179 3.105-1.916 1.1-4.293 1.1-2.466 0-4.368-1.115-1.901-1.114-2.956-3.12-1.055-2.005-1.055-4.65 0-2.674 1.055-4.68 1.055-2.005 2.956-3.119 1.902-1.114 4.368-1.114 2.377 0 4.293 1.1 1.917 1.099 3.194 3.104 1.278 2.006 1.724 4.71zm-12.568 0q0 1.486.609 2.615.609 1.13 1.678 1.768 1.07.639 2.466.639 1.397 0 2.63-.64 1.233-.638 2.184-1.767.95-1.129 1.485-2.615-.535-1.485-1.485-2.629-.951-1.144-2.184-1.783-1.233-.638-2.63-.638-1.396 0-2.466.638-1.07.64-1.678 1.783-.61 1.144-.61 2.63zM147.041 40.14h5.022v20.025h-5.022zm-8.883-2.258h22.759v4.457h-22.76zM159.966 43.26h5.021l1.01 6.09v10.815h-4.961v-11.35zm14.261-.179v4.279q-.772-.178-1.545-.268-.772-.089-1.455-.089-1.486 0-2.674.624-1.189.624-1.872 1.932-.684 1.307-.684 3.298l-1.04-1.248q.179-1.813.654-3.402.475-1.59 1.322-2.793.847-1.204 2.095-1.902 1.248-.698 2.971-.698.565 0 1.144.074.58.075 1.084.193zM176.515 43.081l2.466.476 2.496-.476v17.084h-4.962zm2.466-1.753q-1.337 0-2.184-.698-.846-.698-.846-1.857 0-1.188.846-1.886.847-.699 2.184-.699 1.367 0 2.199.699.832.698.832 1.886 0 1.16-.832 1.857-.832.698-2.199.698zM194.906 60.611q-3.149 0-5.526-1.114t-3.714-3.12q-1.337-2.005-1.337-4.65 0-2.674 1.337-4.68 1.337-2.005 3.714-3.119 2.377-1.114 5.526-1.114 3.15 0 5.527 1.114 2.377 1.114 3.699 3.12 1.322 2.005 1.322 4.68 0 2.644-1.322 4.65-1.322 2.005-3.7 3.119-2.376 1.114-5.526 1.114zm0-3.773q1.724 0 2.957-.624 1.233-.624 1.901-1.768.669-1.144.669-2.719 0-1.604-.669-2.748-.668-1.144-1.901-1.768-1.233-.624-2.957-.624-1.693 0-2.94.624-1.249.624-1.917 1.768-.669 1.144-.669 2.748 0 1.575.669 2.72.668 1.143 1.916 1.767 1.248.624 2.941.624z"/></g></svg>