<svg width="183.466" height="44.783" viewBox="0 0 183.466 44.783" xmlns="http://www.w3.org/2000/svg"><g fill="#fff"><path d="M1.578 17.043V5.996h3.787q1.468 0 2.407.434.939.434 1.396 1.2.458.765.458 1.76 0 .978-.458 1.75-.457.774-1.396 1.208-.94.434-2.407.434H3.061v4.26zm1.483-5.555h2.225q1.578 0 2.217-.568.64-.568.64-1.53 0-.963-.64-1.531-.639-.569-2.217-.569H3.061zM14.912 17.2q-1.057 0-1.98-.465-.923-.466-1.483-1.412-.56-.947-.56-2.383v-.316q0-1.357.56-2.272.56-.915 1.483-1.373.923-.458 1.98-.458 1.073 0 1.989.458.915.458 1.475 1.373t.56 2.272v.316q0 1.436-.56 2.383-.56.946-1.475 1.412-.916.465-1.989.465zm0-1.262q.647 0 1.239-.292.592-.292.978-.955.387-.662.387-1.751v-.316q0-1.01-.387-1.633-.386-.623-.978-.915-.592-.292-1.239-.292-.63 0-1.23.292t-.987.915q-.386.623-.386 1.633v.316q0 1.089.386 1.751.387.663.986.955.6.292 1.231.292zM20.278 17.043V15.89l4.955-5.981h-4.798V8.68h6.47V9.83l-4.955 5.98h5.113v1.232zM28.957 17.043V8.679h1.294v1.578q.284-.694 1.002-1.215.718-.52 1.854-.52 1.578 0 2.343.844.766.844.766 2.47v5.207h-1.39V12.15q0-1.168-.488-1.768-.49-.6-1.641-.6-.821 0-1.342.348-.52.347-.765.884-.245.536-.245 1.136v4.892zM41.044 17.2q-.915 0-1.554-.339-.64-.34-.97-.93-.332-.593-.332-1.334 0-1.247.734-1.8.734-.552 2.107-.552h2.714v-.568q0-1.073-.482-1.483-.48-.41-1.443-.41-.9 0-1.31.339-.41.34-.458.765h-1.389q.048-.678.458-1.207.41-.528 1.12-.844.71-.316 1.657-.316.995 0 1.72.308.726.308 1.12.963.395.654.395 1.728v3.392q0 .663.008 1.16.008.497.071.97h-1.215q-.047-.362-.063-.686-.016-.323-.016-.734-.331.663-1.073 1.12-.741.458-1.799.458zm.3-1.262q.663 0 1.207-.237.545-.236.868-.694.324-.458.324-1.12v-.569h-2.478q-.773 0-1.215.308-.442.308-.442.97 0 .585.418.963.419.379 1.318.379zM46.599 20.356q-.174 0-.395-.007-.22-.008-.394-.04v-1.262q.126.031.276.04.15.007.276.007.537 0 .837-.166.3-.165.418-.607.118-.442.118-1.278V8.679h1.389v8.364q0 1.294-.245 2.02-.244.725-.797 1.01-.552.283-1.483.283zm1.83-12.782q-.41 0-.678-.268-.268-.268-.268-.678 0-.41.268-.679.268-.268.678-.268.41 0 .679.268.268.268.268.679 0 .41-.268.678-.268.268-.679.268zM55.751 17.043V8.679h1.294v1.578q.269-.773.924-1.254.654-.482 1.49-.482 1.09 0 1.673.466.584.465.805 1.191.41-.773 1.05-1.215.639-.442 1.538-.442 1.294 0 2.02.781.726.782.726 2.454v5.287h-1.389v-4.971q0-1.247-.434-1.768-.434-.52-1.317-.52-.505 0-.947.276-.442.276-.71.789-.268.513-.268 1.223v4.97h-1.39v-4.97q0-1.247-.441-1.768-.442-.52-1.31-.52-.505 0-.947.276-.441.276-.71.789-.268.513-.268 1.223v4.97zM73.189 17.2q-1.058 0-1.98-.465-.924-.466-1.484-1.412-.56-.947-.56-2.383v-.316q0-1.357.56-2.272.56-.915 1.483-1.373.923-.458 1.98-.458 1.074 0 1.989.458t1.475 1.373q.56.915.56 2.272v.316q0 1.436-.56 2.383-.56.946-1.475 1.412-.915.465-1.988.465zm0-1.262q.647 0 1.238-.292.592-.292.979-.955.386-.662.386-1.751v-.316q0-1.01-.386-1.633-.387-.623-.979-.915-.591-.292-1.238-.292-.632 0-1.231.292-.6.292-.987.915-.386.623-.386 1.633v.316q0 1.089.386 1.751.387.663.987.955.6.292 1.23.292zM78.554 17.043V15.89l4.955-5.981h-4.797V8.68h6.47V9.83l-4.955 5.98h5.112v1.232zm3.393-9.469q-.41 0-.679-.268Q81 7.038 81 6.628q0-.41.268-.679.268-.268.679-.268.41 0 .678.268.268.268.268.679 0 .41-.268.678-.268.268-.678.268zM89.758 17.122q-.868 0-1.413-.277-.544-.276-.789-.868-.244-.591-.244-1.538V5.996H88.7v8.443q0 .82.269 1.12.268.3.947.3.173 0 .3-.008.126-.008.252-.023v1.23q-.079.016-.213.032t-.268.024q-.135.008-.23.008zM92.44 17.043V8.679h1.39v8.364zm.695-9.469q-.41 0-.679-.268-.268-.268-.268-.678 0-.41.268-.679.268-.268.679-.268.41 0 .678.268.269.268.269.679 0 .41-.269.678-.268.268-.678.268zM98.01 17.043l-2.287-8.364h1.515l1.61 6.47 2.177-6.47h1.23l2.257 6.47 1.594-6.47h1.452l-2.288 8.364h-1.389l-2.272-6.47-2.21 6.47zM112.607 17.2q-1.057 0-1.98-.465-.923-.466-1.483-1.412-.56-.947-.56-2.383v-.316q0-1.357.56-2.272.56-.915 1.483-1.373.923-.458 1.98-.458 1.074 0 1.989.458t1.475 1.373q.56.915.56 2.272v.316q0 1.436-.56 2.383-.56.946-1.475 1.412-.915.465-1.989.465zm0-1.262q.647 0 1.24-.292.591-.292.978-.955.386-.662.386-1.751v-.316q0-1.01-.386-1.633-.387-.623-.979-.915-.592-.292-1.239-.292-.63 0-1.23.292t-.987.915q-.386.623-.386 1.633v.316q0 1.089.386 1.751.387.663.987.955.6.292 1.23.292zM121.523 17.2q-.836 0-1.451-.197-.616-.197-1.026-.528-.41-.332-.655-.782-.245-.45-.34-.939h1.39q.11.505.591.876t1.491.371q1.168 0 1.626-.37.457-.372.457-.877 0-.347-.197-.607t-.694-.45q-.497-.19-1.413-.315-.694-.095-1.246-.277-.553-.181-.947-.48-.395-.3-.608-.727-.213-.426-.213-1.01 0-.63.363-1.167t1.09-.868q.725-.332 1.782-.332.994 0 1.65.34.654.339 1.017.891.363.552.49 1.215h-1.39q-.126-.552-.536-.9-.41-.346-1.23-.346-1.026 0-1.437.339-.41.34-.41.828 0 .568.45.852.45.285 1.649.442.773.095 1.373.276.6.182 1.01.49.41.307.623.75.213.441.213 1.056 0 .663-.379 1.216-.378.552-1.144.891-.765.34-1.949.34zm-.552-9.31l1.736-2.525h1.736l-2.367 2.525zM130.202 17.2q-1.073 0-1.933-.465-.86-.466-1.357-1.412-.497-.947-.497-2.383v-.316q0-1.357.537-2.272.536-.915 1.404-1.373.868-.458 1.846-.458.995 0 1.713.355.718.355 1.16.963.441.607.6 1.365h-1.421q-.253-.6-.702-1.01-.45-.41-1.35-.41-.615 0-1.152.292-.536.292-.875.915-.34.623-.34 1.633v.316q0 1.073.34 1.736.339.662.875.962.537.3 1.152.3.774 0 1.302-.379.529-.378.75-1.041h1.42q-.19.82-.678 1.428-.49.607-1.2.93-.71.324-1.594.324zM135.725 17.043V8.679h1.39v8.364zm.695-9.469q-.41 0-.679-.268-.268-.268-.268-.678 0-.41.268-.679.269-.268.679-.268.41 0 .678.268.269.268.269.679 0 .41-.269.678-.268.268-.678.268z"/></g><g fill="#fff"><path d="M4.182 39.293q-.837 0-1.452-.198-.615-.197-1.026-.528-.41-.332-.655-.781-.244-.45-.339-.94H2.1q.11.506.592.877.48.37 1.49.37 1.168 0 1.626-.37.458-.371.458-.876 0-.347-.198-.608-.197-.26-.694-.45-.497-.189-1.412-.315-.694-.095-1.247-.276-.552-.182-.947-.482-.394-.3-.607-.725-.213-.427-.213-1.01 0-.632.363-1.168.363-.537 1.089-.868.725-.331 1.783-.331.994 0 1.649.339.655.34 1.018.891.363.553.489 1.216H5.949q-.126-.553-.536-.9-.41-.347-1.231-.347-1.026 0-1.436.34-.41.338-.41.828 0 .568.45.852.449.284 1.648.442.773.094 1.373.276.6.181 1.01.489.41.308.623.75.213.441.213 1.057 0 .663-.378 1.215-.38.552-1.144.891-.766.34-1.95.34zM11.125 39.135L8.837 30.77h1.515l1.61 6.47 2.177-6.47h1.23l2.257 6.47 1.594-6.47h1.452l-2.288 8.364h-1.389l-2.272-6.47-2.21 6.47zM25.722 39.293q-1.058 0-1.98-.466-.924-.465-1.484-1.412-.56-.947-.56-2.383v-.316q0-1.357.56-2.272.56-.915 1.483-1.373.923-.457 1.98-.457 1.074 0 1.989.457.915.458 1.475 1.373t.56 2.272v.316q0 1.436-.56 2.383-.56.947-1.475 1.412-.915.466-1.988.466zm0-1.263q.647 0 1.238-.292.592-.292.979-.954.386-.663.386-1.752v-.316q0-1.01-.386-1.633-.387-.623-.979-.915-.591-.292-1.238-.292-.631 0-1.231.292-.6.292-.986.915-.387.624-.387 1.633v.316q0 1.089.387 1.752.386.662.986.954.6.292 1.23.292zM30.74 42.449q-.174 0-.395-.008-.22-.008-.394-.04V41.14q.126.032.276.04.15.007.276.007.537 0 .836-.165.3-.166.419-.608.118-.442.118-1.278V30.77h1.389v8.364q0 1.294-.245 2.02t-.797 1.01q-.552.284-1.483.284zm1.83-12.782q-.41 0-.678-.268-.268-.269-.268-.679 0-.41.268-.679.268-.268.678-.268.41 0 .679.268.268.269.268.679 0 .41-.268.679-.268.268-.679.268zM39.419 39.293q-1.057 0-1.98-.458-.924-.458-1.484-1.404-.56-.947-.56-2.399v-.316q0-1.388.537-2.296.536-.907 1.42-1.357.883-.45 1.91-.45 1.845 0 2.855 1.01t1.01 2.857v.883h-6.343q0 .979.402 1.563t1.01.844q.608.26 1.223.26.947 0 1.46-.315.512-.316.733-.868h1.357q-.252 1.2-1.238 1.822-.987.624-2.312.624zm-.079-7.417q-.647 0-1.23.245-.585.244-.956.765-.37.52-.37 1.341h5.034q-.016-.868-.356-1.38-.339-.513-.891-.742-.552-.229-1.231-.229zM48.414 42.449q-1.215 0-1.973-.316-.757-.315-1.12-.852-.363-.537-.458-1.2h1.452q.158.506.6.805.441.3 1.499.3 1.278 0 1.877-.615.6-.616.6-1.752v-1.341q-.363.836-1.112 1.247-.75.41-1.76.41-1.026 0-1.815-.474-.789-.473-1.223-1.404-.433-.931-.433-2.304v-.315q0-1.294.45-2.186.449-.892 1.23-1.365.781-.473 1.791-.473 1.073 0 1.862.48.79.482 1.105 1.255v-1.578h1.294v8.048q0 1.705-.994 2.667-.995.963-2.872.963zm-.08-4.545q.758 0 1.334-.316.576-.315.9-.875.323-.56.323-1.286v-1.263q0-.647-.323-1.168-.324-.52-.9-.836-.576-.316-1.333-.316-1.01 0-1.705.742-.694.742-.694 2.052v.315q0 1.436.694 2.194.695.757 1.705.757zM58.276 39.293q-1.057 0-1.98-.466-.923-.465-1.483-1.412-.56-.947-.56-2.383v-.316q0-1.357.56-2.272.56-.915 1.483-1.373.923-.457 1.98-.457 1.073 0 1.989.457.915.458 1.475 1.373t.56 2.272v.316q0 1.436-.56 2.383-.56.947-1.475 1.412-.916.466-1.989.466zm0-1.263q.647 0 1.239-.292.592-.292.978-.954.387-.663.387-1.752v-.316q0-1.01-.387-1.633-.386-.623-.978-.915-.592-.292-1.239-.292-.63 0-1.23.292t-.987.915q-.386.624-.386 1.633v.316q0 1.089.386 1.752.387.662.986.954.6.292 1.231.292zM71.106 39.135v-9.752H67.27v-1.294h9.153v1.294h-3.835v9.752zM76.581 39.135V30.77h1.294v1.578q.19-.505.521-.891.331-.387.813-.616.481-.228 1.08-.228.316 0 .514.031.197.032.355.079v1.294q-.206-.079-.403-.11-.197-.032-.544-.032-.631 0-1.136.3-.505.3-.805.828-.3.529-.3 1.239v4.892zM82.893 39.135V30.77h1.389v8.364zm.695-9.468q-.41 0-.679-.268-.268-.269-.268-.679 0-.41.268-.679.268-.268.679-.268.41 0 .678.268.269.269.269.679 0 .41-.269.679-.268.268-.678.268zM90.436 39.293q-1.057 0-1.98-.466-.923-.465-1.483-1.412-.56-.947-.56-2.383v-.316q0-1.357.56-2.272.56-.915 1.483-1.373.923-.457 1.98-.457 1.073 0 1.989.457.915.458 1.475 1.373t.56 2.272v.316q0 1.436-.56 2.383-.56.947-1.475 1.412-.916.466-1.989.466zm0-1.263q.647 0 1.24-.292.59-.292.977-.954.387-.663.387-1.752v-.316q0-1.01-.387-1.633-.386-.623-.978-.915-.592-.292-1.239-.292-.63 0-1.23.292t-.987.915q-.386.624-.386 1.633v.316q0 1.089.386 1.752.387.662.986.954.6.292 1.231.292z"/></g></svg>