<svg width="100%" height="100%" viewBox="0 0 376 135" version="1.1" xmlns="http://www.w3.org/2000/svg" xmlns:xlink="http://www.w3.org/1999/xlink" xml:space="preserve" xmlns:serif="http://www.serif.com/" style="fill-rule:evenodd;clip-rule:evenodd;stroke-linejoin:round;stroke-miterlimit:2;" preserveAspectRatio="none"><g transform="matrix(1,0,0,1,-748.104,-612.213)"><g transform="matrix(0.73298,-0.178195,-0.0127463,0.519191,269.192,597.952)"><path d="M661.666,475.657C661.666,460.743 664.428,449.131 669.951,440.823C675.475,432.514 683.167,428.36 693.027,428.36C703.135,428.36 710.923,432.441 716.392,440.604C721.86,448.768 724.594,460.202 724.594,474.909C724.594,485.585 723.4,494.341 721.011,501.175C718.622,508.008 715.17,513.326 710.654,517.127C706.138,520.928 700.511,522.829 693.772,522.829C686.923,522.829 681.254,521.188 676.766,517.906C672.278,514.624 668.64,509.431 665.85,502.327C663.061,495.223 661.666,486.333 661.666,475.657ZM680.433,475.781C680.433,485.004 681.572,491.63 683.85,495.66C686.129,499.689 689.229,501.704 693.151,501.704C697.183,501.704 700.304,499.731 702.513,495.784C704.723,491.838 705.828,484.755 705.828,474.535C705.828,465.935 704.675,459.652 702.368,455.685C700.062,451.717 696.935,449.734 692.985,449.734C689.201,449.734 686.163,451.748 683.871,455.778C681.579,459.808 680.433,466.476 680.433,475.781Z" style=";fill-rule:nonzero;" fill="rgb(255,253,253)" data-color-group="0"/><path d="M731.557,429.917L759.438,429.917C764.934,429.917 769.374,431.039 772.757,433.282C776.14,435.526 778.937,438.745 781.146,442.941C783.356,447.137 784.958,452.018 785.952,457.585C786.946,463.152 787.443,469.051 787.443,475.283C787.443,485.045 786.704,492.617 785.227,497.996C783.749,503.376 781.699,507.884 779.075,511.519C776.451,515.154 773.634,517.574 770.624,518.779C766.508,520.44 762.78,521.271 759.438,521.271L731.557,521.271L731.557,429.917ZM750.324,450.606L750.324,500.52L754.923,500.52C758.844,500.52 761.634,499.866 763.291,498.557C764.948,497.249 766.246,494.964 767.185,491.703C768.124,488.442 768.594,483.155 768.594,475.844C768.594,466.164 767.544,459.538 765.445,455.965C763.346,452.392 759.866,450.606 755.005,450.606L750.324,450.606Z" style=";fill-rule:nonzero;" fill="rgb(255,253,253)" data-color-group="0"/><path d="M854.314,428.36L854.314,521.271L837.246,521.271L837.246,460.389C834.484,463.547 831.812,466.102 829.229,468.054C826.647,470.007 823.409,471.876 819.515,473.663L819.515,452.849C825.259,450.066 829.72,446.722 832.896,442.817C836.072,438.912 838.558,434.093 840.353,428.36L854.314,428.36Z" style=";fill-rule:nonzero;" fill="rgb(255,253,253)" data-color-group="0"/><path d="M918.654,521.271L868.03,521.271C868.61,513.752 870.37,506.679 873.312,500.053C876.253,493.427 881.77,485.606 889.862,476.591C894.806,471.066 897.968,466.87 899.349,464.004C900.73,461.137 901.42,458.416 901.42,455.84C901.42,453.057 900.737,450.679 899.37,448.705C898.002,446.732 896.283,445.745 894.212,445.745C892.058,445.745 890.297,446.763 888.93,448.799C887.563,450.834 886.644,454.428 886.175,459.579L869.272,457.523C869.935,450.377 871.151,444.8 872.918,440.791C874.686,436.782 877.178,433.708 880.396,431.569C883.613,429.429 888.067,428.36 893.756,428.36C899.694,428.36 904.313,429.377 907.614,431.413C910.914,433.449 913.51,436.575 915.402,440.791C917.294,445.008 918.24,449.734 918.24,454.968C918.24,460.535 917.156,465.852 914.988,470.921C912.82,475.989 908.877,481.556 903.16,487.621C899.763,491.152 897.492,493.624 896.345,495.037C895.199,496.449 893.853,498.298 892.306,500.583L918.654,500.583L918.654,521.271Z" style=";fill-rule:nonzero;" fill="rgb(255,253,253)" data-color-group="0"/><path d="M922.469,475.22C922.469,457.855 924.547,445.704 928.704,438.766C932.86,431.828 939.192,428.36 947.698,428.36C951.786,428.36 955.141,429.118 957.765,430.634C960.389,432.15 962.529,434.124 964.186,436.554C965.843,438.984 967.148,441.539 968.101,444.219C969.054,446.898 969.82,450.024 970.4,453.597C971.533,460.41 972.099,467.514 972.099,474.909C972.099,491.485 970.235,503.615 966.506,511.301C962.778,518.986 956.356,522.829 947.242,522.829C942.133,522.829 938.004,521.603 934.856,519.152C931.707,516.701 929.125,513.108 927.109,508.372C925.645,505.007 924.506,500.406 923.691,494.569C922.876,488.732 922.469,482.283 922.469,475.22ZM939.205,475.283C939.205,486.915 939.889,494.86 941.256,499.118C942.623,503.376 944.605,505.505 947.201,505.505C948.913,505.505 950.398,504.602 951.654,502.795C952.911,500.988 953.836,498.131 954.43,494.226C955.024,490.321 955.321,484.235 955.321,475.968C955.321,463.838 954.637,455.685 953.27,451.51C951.903,447.334 949.852,445.247 947.118,445.247C944.329,445.247 942.312,447.376 941.07,451.634C939.827,455.892 939.205,463.775 939.205,475.283Z" style=";fill-rule:nonzero;" fill="rgb(255,253,253)" data-color-group="0"/><path d="M1003.22,429.917L1034.41,429.917C1041.21,429.917 1046.3,432.348 1049.68,437.208C1053.06,442.069 1054.75,448.986 1054.75,457.959C1054.75,467.182 1052.91,474.39 1049.22,479.582C1045.54,484.775 1039.91,487.372 1032.34,487.372L1022.07,487.372L1022.07,521.271L1003.22,521.271L1003.22,429.917ZM1022.07,468.864L1026.67,468.864C1030.28,468.864 1032.82,467.919 1034.29,466.029C1035.75,464.139 1036.48,461.719 1036.48,458.769C1036.48,455.903 1035.85,453.472 1034.58,451.478C1033.31,449.484 1030.92,448.487 1027.41,448.487L1022.07,448.487L1022.07,468.864Z" style=";fill-rule:nonzero;" fill="rgb(255,253,253)" data-color-group="0"/><path d="M1061.18,429.917L1079.94,429.917L1079.94,498.775L1109.23,498.775L1109.23,521.271L1061.18,521.271L1061.18,429.917Z" style=";fill-rule:nonzero;" fill="rgb(255,253,253)" data-color-group="0"/><path d="M1114.5,429.917L1132.02,429.917L1154.89,480.455L1154.89,429.917L1172.58,429.917L1172.58,521.271L1154.89,521.271L1132.15,471.108L1132.15,521.271L1114.5,521.271L1114.5,429.917Z" style=";fill-rule:nonzero;" fill="rgb(255,253,253)" data-color-group="0"/></g></g></svg>